# xmcd
#
# Track frame offsets:
# 150
# 19511
# 31719
# 46077
# 58556
# 70133
# 82541
# 97379
# 107587
# 122168
# 132823
# 145027
# 160819
# 172937
#
# Disc length: 2530 seconds
#
#
# Revision: 0
# Processed by: cddbd v1.5.2PL0 Copyright (c) Steve Scherf et al.
# Submitted via: FreeRIP 2.00 
#
DISCID=a409e00e
DTITLE=Wenche - Dance the night away
DYEAR=2007
DGENRE=Country
TTITLE0=Dance the night away
TTITLE1=Love`s gonna live here again
TTITLE2=Walkin on sunshine
TTITLE3=There`s a kind of hush
TTITLE4=Why`d you come in here lookin like that
TTITLE5=Mi vida loca
TTITLE6=Mama he`s crazy
TTITLE7=Gettin good at gettin over you
TTITLE8=Here comes my baby
TTITLE9=Your good girl`s gonna go bad
TTITLE10=Honky tonk saturday night
TTITLE11=Hold me
TTITLE12=Lttle bitty
TTITLE13=If tomorrow never comes
EXTD=
EXTT0=
EXTT1=
EXTT2=
EXTT3=
EXTT4=
EXTT5=
EXTT6=
EXTT7=
EXTT8=
EXTT9=
EXTT10=
EXTT11=
EXTT12=
EXTT13=
PLAYORDER=
